<svg xmlns="http://www.w3.org/2000/svg" viewBox="0 0 170 50">
  <path d="M28.6,9.5L15.2,36.6h5l2.7-5.5h12.3l2.8,5.5h5L29.6,9.5H28.6z M24.8,26.2l4.3-8.7l4.3,8.7H24.8z" fill="#00a6b6"/>
  <path d="M48.6,14.3c0-3.3,2.8-3.3,4.1-3.3c1.3,0,4.1,0,4.1,3.3v22.3h4.5V14.3c0-6.1-5-7.6-8.5-7.6c-3.5,0-8.5,1.5-8.5,7.6v22.3h4.5V14.3z" fill="#00a6b6"/>
  <path d="M80.4,36.6V7.3h-4.5v12.1c-1.3-1-3.3-1.6-5.4-1.6c-4,0-9.3,2.7-9.3,9.8c0,7.2,5.2,9.8,9.3,9.8c2.2,0,4.6-0.7,5.7-1.8c0.3,0.7,0.8,1.2,1.7,1.2h3.2C80.6,36.7,80.5,36.6,80.4,36.6z M75.9,29.3c-0.9,1.4-3.1,2.3-5.2,2.3c-2.5,0-5.1-1.5-5.1-4.9c0-3.4,2.6-4.9,5.1-4.9c2.1,0,4.3,0.9,5.2,2.3V29.3z" fill="#00a6b6"/>
  <path d="M152.6,9.5l-13.4,27.1h5l2.7-5.5h12.3l2.8,5.5h5l-13.4-27.1H152.6z M148.8,26.2l4.3-8.7l4.3,8.7H148.8z" fill="#f89c33"/>
  <path d="M124.8,22.6c0-4.5-2.8-7.1-8.2-7.1h-11.5v21.1h4.5v-6.9h5.5l5.4,6.9h5.7l-6.1-7.5C123,28.1,124.8,25.9,124.8,22.6z M120.3,22.7c0,1.7-1.4,2.5-3.8,2.5h-6.9v-5h6.9C118.4,20.2,120.3,20.7,120.3,22.7z" fill="#f89c33"/>
  <path d="M105.2,36.6h4.5V18.6h-4.5V36.6z" fill="#f89c33"/>
  <path d="M105.2,14.4h4.5v-4.5h-4.5V14.4z" fill="#f89c33"/>
  <path d="M133.9,24.1c0-3.2,2.3-4.5,4.7-4.5c2.1,0,4.1,0.9,4.8,2.1l3.5-2.3c-1.9-2.5-5.2-3.8-8.3-3.8c-4.6,0-9.2,3.1-9.2,8.5c0,5.4,4.6,8.5,9.2,8.5c3.2,0,6.3-1.3,8.3-3.8l-3.5-2.3c-0.7,1.1-2.7,2.1-4.8,2.1C136.3,28.6,133.9,27.3,133.9,24.1z" fill="#f89c33"/>
</svg>